# This file uses centimeters as units for non-parametric coordinates.

mtllib bottle.mtl
g default
v -0.500000 0.004319 0.500000
v 0.500000 0.004319 0.500000
v -0.427931 4.147250 0.427931
v 0.427931 4.147250 0.427931
v -0.254587 5.307083 0.254587
v 0.254587 5.307083 0.254587
v -0.254587 5.307083 -0.254587
v 0.254587 5.307083 -0.254587
v -0.427931 4.147250 -0.427931
v 0.427931 4.147250 -0.427931
v -0.500000 0.004319 -0.500000
v 0.500000 0.004319 -0.500000
v -0.183084 5.313838 0.183084
v 0.183084 5.313838 0.183084
v 0.183084 5.313838 -0.183084
v -0.183084 5.313838 -0.183084
v -0.262381 5.919241 0.262381
v 0.262381 5.919241 0.262381
v 0.262381 5.919241 -0.262381
v -0.262381 5.919241 -0.262381
v -0.183504 4.487254 0.183504
v 0.183504 4.487254 0.183504
v -0.183504 4.487254 -0.183504
v 0.183504 4.487254 -0.183504
vt 0.026712 0.210204
vt 0.214253 0.022663
vt 0.977707 0.813149
vt 0.817198 0.973659
vt 0.550772 0.060043
vt 0.793480 0.060043
vt 0.724165 0.129358
vt 0.620087 0.129358
vt 0.793480 0.302751
vt 0.724165 0.233435
vt 0.550772 0.302751
vt 0.620087 0.233435
vt 0.280590 0.685904
vt 0.431024 0.685904
vt 0.431024 0.836338
vt 0.280590 0.836338
vt 0.948697 0.510155
vt 0.867936 0.590916
vt 0.749176 0.449606
vt 0.807388 0.391394
vt 0.977504 0.813651
vt 0.816995 0.974161
vt 0.026509 0.210706
vt 0.214050 0.023165
vt 0.529099 0.038306
vt 0.812682 0.038306
vt 0.812682 0.321889
vt 0.529099 0.321889
vt 0.026442 0.210474
vt 0.213983 0.022933
vt 0.977437 0.813419
vt 0.816928 0.973929
vt 0.026259 0.210657
vt 0.213800 0.023116
vt 0.977254 0.813602
vt 0.816745 0.974111
vt 0.599470 0.108032
vt 0.743863 0.108032
vt 0.723586 0.128309
vt 0.619747 0.128309
vt 0.743863 0.252425
vt 0.723586 0.232148
vt 0.599470 0.252425
vt 0.619747 0.232148
vt 0.107037 0.708636
vt 0.080003 0.607207
vt 0.241846 0.540543
vt 0.807480 0.391788
vt 0.807967 0.391300
vt 0.027757 0.516162
vt 0.166972 0.410065
vt 0.749755 0.449512
vt 0.080003 0.915035
vt 0.107037 0.813606
vt 0.868515 0.590822
vt 0.241845 0.981698
vt 0.949276 0.510061
vt 0.749268 0.450000
vt 0.868028 0.591309
vt 0.948789 0.510548
vt 0.749654 0.449614
vt 0.807866 0.391402
vt 0.949175 0.510162
vt 0.868414 0.590923
vn -0.674385 -0.656891 0.337193
vn 0.411741 -0.390316 0.823482
vn -0.617716 0.424557 0.661951
vn 0.661951 0.424557 0.617716
vn -0.681058 0.362327 0.636301
vn 0.636301 0.362327 0.681058
vn -0.431172 0.265428 0.862345
vn 0.723678 0.587676 0.361839
vn -0.723678 0.587676 -0.361839
vn 0.431172 0.265427 -0.862345
vn -0.574396 0.750846 -0.326036
vn 0.326037 0.750845 -0.574396
vn -0.636301 0.362326 -0.681058
vn 0.681058 0.362326 -0.636301
vn 0.674385 -0.656891 -0.337193
vn -0.411741 -0.390316 -0.823482
vn 0.617716 0.424557 -0.661951
vn -0.661951 0.424557 -0.617716
vn -0.326037 0.750845 0.574396
vn 0.574396 0.750846 0.326036
vn -0.588657 0.736015 0.334313
vn 0.334313 0.736015 0.588657
vn 0.588657 0.736015 -0.334313
vn -0.334313 0.736015 -0.588657
s 1
g pCube1
usemtl initialShadingGroup
f 1/1/1 2/2/2 3/4/3
f 2/2/2 4/3/4 3/4/3
f 3/5/3 4/6/4 21/8/5
f 4/6/4 22/7/6 21/8/5
f 17/13/7 18/14/8 20/16/9
f 18/14/8 19/15/10 20/16/9
f 7/17/11 8/18/12 23/20/13
f 8/18/12 24/19/14 23/20/13
f 12/23/15 11/24/16 10/22/17
f 9/21/18 10/22/17 11/24/16
f 11/25/16 12/26/15 1/28/1
f 12/26/15 2/27/2 1/28/1
f 2/29/2 12/30/15 4/32/4
f 12/30/15 10/31/17 4/32/4
f 4/6/4 10/9/17 22/7/6
f 10/9/17 24/10/14 22/7/6
f 11/33/16 1/34/1 9/36/18
f 1/34/1 3/35/3 9/36/18
f 9/11/18 3/5/3 23/12/13
f 3/5/3 21/8/5 23/12/13
f 5/37/19 6/38/20 13/40/21
f 6/38/20 14/39/22 13/40/21
f 6/38/20 8/41/12 14/39/22
f 8/41/12 15/42/23 14/39/22
f 8/41/12 7/43/11 15/42/23
f 7/43/11 16/44/24 15/42/23
f 7/43/11 5/37/19 16/44/24
f 5/37/19 13/40/21 16/44/24
f 18/47/8 17/13/7 14/46/22
f 13/45/21 14/46/22 17/13/7
f 19/51/10 18/47/8 15/50/23
f 14/46/22 15/50/23 18/47/8
f 20/16/9 19/56/10 16/54/24
f 15/53/23 16/54/24 19/56/10
f 17/13/7 20/16/9 13/45/21
f 16/54/24 13/45/21 20/16/9
f 6/63/20 5/64/19 22/62/6
f 21/61/5 22/62/6 5/64/19
f 10/9/17 9/11/18 24/10/14
f 23/12/13 24/10/14 9/11/18
f 8/57/12 6/55/20 24/49/14
f 22/52/6 24/49/14 6/55/20
f 5/60/19 7/59/11 21/48/5
f 23/58/13 21/48/5 7/59/11
