# This file uses centimeters as units for non-parametric coordinates.

mtllib bowl.mtl
g default
v 1.215010 0.038109 -1.215010
v -0.000000 0.038109 -1.718284
v -1.215010 0.038109 -1.215010
v -1.718284 0.038109 -0.000000
v -1.215010 0.038109 1.215010
v -0.000000 0.038109 1.718284
v 1.215010 0.038109 1.215010
v 1.718284 0.038109 -0.000000
v 1.784445 1.173073 -1.784445
v 0.000000 1.173073 -2.523586
v -1.784445 1.173073 -1.784445
v -2.523586 1.173073 0.000000
v -1.784445 1.173073 1.784445
v 0.000000 1.173073 2.523587
v 1.784445 1.173073 1.784445
v 2.523587 1.173073 0.000000
v 1.198464 0.558976 -1.198464
v -0.000000 0.558976 -1.694885
v -1.198464 0.558976 -1.198464
v -1.694885 0.558976 -0.000000
v -1.198464 0.558976 1.198464
v -0.000000 0.558976 1.694885
v 1.198464 0.558976 1.198464
v 1.694885 0.558976 -0.000000
v -0.000000 0.037307 -0.000000
v -0.000000 0.125416 -0.000000
vt 0.684278 0.201889
vt 0.684278 0.499267
vt 0.406491 0.499267
vt 0.406491 0.062518
vt 0.684278 0.796646
vt 0.406491 0.936017
vt 0.684521 0.201916
vt 0.684521 0.499294
vt 0.406734 0.499294
vt 0.406734 0.062545
vt 0.684521 0.796673
vt 0.406734 0.936044
vt 0.684473 0.201916
vt 0.684473 0.499294
vt 0.406687 0.499294
vt 0.406686 0.062545
vt 0.684473 0.796673
vt 0.406687 0.936044
vt 0.684515 0.201916
vt 0.684515 0.499294
vt 0.406728 0.499294
vt 0.406728 0.062545
vt 0.684515 0.796673
vt 0.406728 0.936044
vt 0.732794 0.936089
vt 0.732794 0.499339
vt 0.883097 0.499339
vt 0.883097 0.792668
vt 0.732794 0.062590
vt 0.883097 0.206011
vt 0.989212 0.499339
vt 0.732897 0.936418
vt 0.732897 0.499668
vt 0.883200 0.499668
vt 0.883200 0.792997
vt 0.732897 0.062918
vt 0.883200 0.206339
vt 0.989315 0.499668
vt 0.733060 0.936496
vt 0.733060 0.499746
vt 0.883363 0.499746
vt 0.883363 0.793075
vt 0.733060 0.062996
vt 0.883363 0.206417
vt 0.989478 0.499746
vt 0.733240 0.936547
vt 0.733240 0.499797
vt 0.883543 0.499797
vt 0.883543 0.793126
vt 0.733240 0.063048
vt 0.883543 0.206469
vt 0.989658 0.499797
vt 0.005457 0.501305
vt 0.111698 0.244817
vt 0.368186 0.501305
vt 0.367376 0.864274
vt 0.111698 0.757794
vt 0.110888 0.758033
vt 0.368186 0.864035
vt 0.004647 0.501545
vt 0.110888 0.245057
vt 0.367376 0.501545
vt 0.367376 0.501545
vt 0.367376 0.138816
vt 0.367376 0.501545
vt 0.368186 0.138576
vt 0.110888 0.758033
vt 0.110888 0.245057
vn -0.111898 -0.575038 -0.810438
vn 0.493942 -0.575038 -0.652190
vn 0.073885 -0.841401 -0.535336
vn 0.430784 -0.841401 -0.326296
vn -0.652190 -0.575038 -0.493942
vn -0.326296 -0.841401 -0.430784
vn -0.810438 -0.575038 0.111898
vn -0.535336 -0.841401 -0.073885
vn -0.493942 -0.575038 0.652190
vn -0.430784 -0.841401 0.326296
vn 0.111898 -0.575038 0.810438
vn -0.073885 -0.841401 0.535336
vn 0.652190 -0.575039 0.493942
vn 0.326295 -0.841401 0.430784
vn 0.810438 -0.575039 -0.111898
vn 0.535336 -0.841401 0.073885
vn -0.477514 0.800743 0.361650
vn -0.081928 0.800743 0.593379
vn -0.291623 0.885438 0.361878
vn 0.049678 0.885438 0.462096
vn 0.361650 0.800743 0.477514
vn 0.361878 0.885438 0.291623
vn 0.593379 0.800743 0.081928
vn 0.462096 0.885438 -0.049678
vn 0.477514 0.800743 -0.361650
vn 0.291623 0.885438 -0.361878
vn 0.081929 0.800743 -0.593379
vn -0.049678 0.885438 -0.462095
vn -0.361650 0.800743 -0.477514
vn -0.361878 0.885438 -0.291623
vn -0.593379 0.800743 -0.081928
vn -0.462095 0.885438 0.049678
vn -0.000000 -1.000000 0.000000
vn 0.000000 1.000000 0.000000
s 1
g pCylinder1
usemtl initialShadingGroup
f 10/3/1 9/4/2 2/2/3
f 1/1/4 2/2/3 9/4/2
f 11/6/5 10/3/1 3/5/6
f 2/2/3 3/5/6 10/3/1
f 12/9/7 11/10/5 4/8/8
f 3/7/6 4/8/8 11/10/5
f 13/12/9 12/9/7 5/11/10
f 4/8/8 5/11/10 12/9/7
f 14/15/11 13/16/9 6/14/12
f 5/13/10 6/14/12 13/16/9
f 15/18/13 14/15/11 7/17/14
f 6/14/12 7/17/14 14/15/11
f 16/21/15 15/22/13 8/20/16
f 7/19/14 8/20/16 15/22/13
f 9/24/2 16/21/15 1/23/4
f 8/20/16 1/23/4 16/21/15
s 2
f 9/25/17 10/26/18 17/28/19
f 10/26/18 18/27/20 17/28/19
f 10/26/18 11/29/21 18/27/20
f 11/29/21 19/30/22 18/27/20
f 11/32/21 12/33/23 19/35/22
f 12/33/23 20/34/24 19/35/22
f 12/33/23 13/36/25 20/34/24
f 13/36/25 21/37/26 20/34/24
f 13/39/25 14/40/27 21/42/26
f 14/40/27 22/41/28 21/42/26
f 14/40/27 15/43/29 22/41/28
f 15/43/29 23/44/30 22/41/28
f 15/46/29 16/47/31 23/49/30
f 16/47/31 24/48/32 23/49/30
f 16/47/31 9/50/17 24/48/32
f 9/50/17 17/51/19 24/48/32
s 1
f 2/53/3 1/54/4 25/55/33
f 3/57/6 2/53/3 25/55/33
f 4/59/8 3/57/6 25/55/33
f 5/61/10 4/64/8 25/62/33
f 6/60/12 5/68/10 25/63/33
f 7/58/14 6/60/12 25/63/33
f 8/56/16 7/67/14 25/65/33
f 1/54/4 8/66/16 25/55/33
s 2
f 17/28/19 18/27/20 26/31/34
f 18/27/20 19/30/22 26/31/34
f 19/35/22 20/34/24 26/38/34
f 20/34/24 21/37/26 26/38/34
f 21/42/26 22/41/28 26/45/34
f 22/41/28 23/44/30 26/45/34
f 23/49/30 24/48/32 26/52/34
f 24/48/32 17/51/19 26/52/34
