# This file uses centimeters as units for non-parametric coordinates.

mtllib bread.mtl
g default
v 0.852842 2.422964 -2.340663
v -0.852841 2.422964 -2.340663
v -1.705683 1.295199 -2.340663
v -0.852842 0.167432 -2.340663
v 0.852841 0.167432 -2.340663
v 1.705683 1.295199 -2.340663
v 1.013630 2.766025 -0.836846
v -1.013629 2.766026 -0.836846
v -2.027258 1.425641 -0.836846
v -1.013629 0.085255 -0.836846
v 1.013629 0.085255 -0.836846
v 2.027258 1.425641 -0.836846
v 1.013630 2.766025 1.344704
v -1.013629 2.766026 1.344704
v -2.027258 1.425641 1.344704
v -1.013629 0.085255 1.344704
v 1.013629 0.085255 1.344704
v 2.027258 1.425641 1.344704
v -0.000000 1.295199 -3.121030
v 1.013630 2.675751 2.042006
v -1.013629 2.675751 2.042006
v -0.827885 2.179688 2.939886
v 0.827885 2.179688 2.939886
v -2.027258 1.381441 1.693594
v -1.655770 1.122556 2.655319
v -1.013629 0.087130 1.345181
v -0.827885 0.065423 2.370751
v 1.013629 0.087130 1.345181
v 0.827885 0.065423 2.370751
v 2.027258 1.381441 1.693594
v 1.655769 1.122556 2.655319
v 0.827885 1.437324 4.108342
v -0.827885 1.437324 4.108342
v -1.655770 0.770760 3.239895
v -0.827885 0.104196 2.371448
v 0.827885 0.104196 2.371448
v 1.655769 0.770760 3.239895
v -0.000000 0.151716 3.715034
vt 0.206818 0.403097
vt 0.497635 0.637408
vt 0.181766 0.637408
vt 0.605465 0.403097
vt 0.655570 0.637408
vt 0.497635 0.977318
vt 0.181766 0.977318
vt 0.073936 0.403097
vt 0.023831 0.637408
vt 0.655570 0.977318
vt 0.023831 0.977318
vt 0.206659 0.403468
vt 0.497477 0.637779
vt 0.181607 0.637779
vt 0.605306 0.403468
vt 0.655411 0.637779
vt 0.497477 0.977689
vt 0.181607 0.977689
vt 0.073777 0.403468
vt 0.023672 0.637779
vt 0.655411 0.977689
vt 0.023672 0.977689
vt 0.978283 0.411265
vt 0.809801 0.538675
vt 0.641319 0.411265
vt 0.641319 0.156446
vt 0.809801 0.029036
vt 0.978283 0.156446
vt 0.484027 0.596395
vt 0.183946 0.596396
vt 0.211441 0.448972
vt 0.456532 0.448972
vt 0.033906 0.596396
vt 0.088895 0.448972
vt 0.633956 0.590533
vt 0.483916 0.594301
vt 0.456422 0.446200
vt 0.578967 0.443122
vt 0.183837 0.594302
vt 0.211331 0.446200
vt 0.033797 0.590534
vt 0.088785 0.443123
vt 0.634067 0.596395
vt 0.579078 0.448971
vt 0.638218 0.408202
vt 0.638218 0.153429
vt 0.806669 0.026042
vt 0.975121 0.153429
vt 0.975121 0.408202
vt 0.806669 0.535589
vt 0.978345 0.409831
vt 0.808983 0.537907
vt 0.639622 0.409831
vt 0.639622 0.153678
vt 0.808983 0.025602
vt 0.978345 0.153678
vt 0.604946 0.110149
vt 0.604946 0.292043
vt 0.484683 0.201096
vt 0.484683 0.382990
vt 0.364418 0.292043
vt 0.364418 0.110150
vt 0.484683 0.019203
vt 0.639013 0.409355
vt 0.639013 0.153959
vt 0.807876 0.026262
vt 0.976739 0.153959
vt 0.976739 0.409355
vt 0.807876 0.537053
vt 0.472424 0.403468
vt 0.472582 0.403097
vt 0.484300 0.383382
vt 0.363815 0.292269
vt 0.484300 0.201156
vt 0.363815 0.110043
vt 0.604785 0.292269
vt 0.484300 0.018929
vt 0.604785 0.110043
vn 0.341646 0.707148 -0.619047
vn -0.341646 0.707148 -0.619047
vn -0.442154 0.888407 -0.123422
vn 0.442154 0.888407 -0.123422
vn -0.752407 -0.003269 -0.658690
vn -0.994444 -0.003227 -0.105219
vn -0.359071 -0.744939 -0.562258
vn -0.444317 -0.894579 -0.048070
vn 0.359070 -0.744939 -0.562258
vn 0.444317 -0.894579 -0.048070
vn 0.752408 -0.003269 -0.658690
vn 0.994444 -0.003227 -0.105219
vn -0.445437 0.895313 -0.000000
vn 0.445437 0.895313 -0.000000
vn -1.000000 0.000000 -0.000000
vn -0.445437 -0.895313 -0.000000
vn 0.445437 -0.895313 0.000000
vn 1.000000 0.000000 0.000000
vn 0.000000 0.000000 -1.000000
vn 0.000000 0.000000 1.000000
vn 0.000000 0.000000 1.000000
vn 0.000000 0.000000 1.000000
vn 0.000000 0.000000 1.000000
vn 0.000000 0.000000 1.000000
vn 0.000000 0.000000 1.000000
vn 0.423469 0.753014 0.503630
vn -0.423468 0.753015 0.503630
vn -0.331814 0.477214 0.813736
vn 0.331814 0.477214 0.813736
vn -0.936945 -0.090841 0.337464
vn -0.697619 -0.186235 0.691841
vn -0.423469 -0.904080 0.057561
vn -0.331814 -0.821222 0.464213
vn 0.423469 -0.904080 0.057560
vn 0.331814 -0.821222 0.464213
vn 0.936945 -0.090841 0.337463
vn 0.697619 -0.186235 0.691841
vn 0.000000 0.259935 -0.965626
vn 0.000000 0.259935 -0.965626
vn 0.000000 0.259935 -0.965626
vn 0.000000 0.259935 -0.965626
vn 0.000000 0.259935 -0.965626
vn 0.000000 0.259935 -0.965626
vn 0.209301 -0.406819 0.889208
vn -0.209301 -0.406819 0.889208
vn 0.000000 -0.793273 0.608866
vn -0.426325 -0.717571 0.550762
vn -0.209301 -0.964159 0.163067
vn 0.209301 -0.964159 0.163067
vn 0.426325 -0.717571 0.550762
vn 0.000000 0.793273 -0.608866
vn 0.000000 0.793273 -0.608866
vn 0.000000 0.793273 -0.608866
vn 0.000000 0.793273 -0.608866
vn 0.000000 0.793273 -0.608866
vn 0.000000 0.793273 -0.608866
s 1
g polySurface4
usemtl initialShadingGroup
f 1/1/1 2/71/2 8/2/3 7/3/4
f 2/71/2 3/4/5 9/5/6 8/2/3
f 3/19/5 4/12/7 10/14/8 9/20/6
f 4/12/7 5/70/9 11/13/10 10/14/8
f 5/70/9 6/15/11 12/16/12 11/13/10
f 6/8/11 1/1/1 7/3/4 12/9/12
f 7/3/4 8/2/3 14/6/13 13/7/14
f 8/2/3 9/5/6 15/10/15 14/6/13
f 9/20/6 10/14/8 16/18/16 15/22/15
f 10/14/8 11/13/10 17/17/17 16/18/16
f 11/13/10 12/16/12 18/21/18 17/17/17
f 12/9/12 7/3/4 13/7/14 18/11/18
f 2/73/2 1/75/1 19/74/19
f 3/72/5 2/73/2 19/74/19
f 4/76/7 3/72/5 19/74/19
f 5/78/9 4/76/7 19/74/19
f 6/77/11 5/78/9 19/74/19
f 1/75/1 6/77/11 19/74/19
s off
f 14/23/20 15/24/21 16/25/22 17/26/23 18/27/24 13/28/25
s 3
f 20/29/26 21/30/27 22/31/28 23/32/29
f 21/30/27 24/33/30 25/34/31 22/31/28
f 24/35/30 26/36/32 27/37/33 25/38/31
f 26/36/32 28/39/34 29/40/35 27/37/33
f 28/39/34 30/41/36 31/42/37 29/40/35
f 30/43/36 20/29/26 23/32/29 31/44/37
s off
f 21/45/38 20/46/39 30/47/40 28/48/41 26/49/42 24/50/43
s 3
f 22/51/28 25/52/31 27/53/33 29/54/35 31/55/37 23/56/29
s 5
f 32/57/44 33/58/45 38/59/46
f 33/58/45 34/60/47 38/59/46
f 34/60/47 35/61/48 38/59/46
f 35/61/48 36/62/49 38/59/46
f 36/62/49 37/63/50 38/59/46
f 37/63/50 32/57/44 38/59/46
s off
f 33/64/51 32/65/52 37/66/53 36/67/54 35/68/55 34/69/56
