# This file uses centimeters as units for non-parametric coordinates.

mtllib cheese.mtl
g default
v -2.109068 1.758723 -1.218007
v -1.902049 0.004902 -0.960312
v 1.902049 0.004902 0.000000
v -1.902049 0.004902 0.960312
v -2.109068 1.758723 1.218007
v 1.902049 1.758723 -0.000000
vt 0.867141 0.210136
vt 0.435339 0.472933
vt 0.319124 0.274850
vt 0.744593 0.015908
vt 0.870308 0.971140
vt 0.432171 0.704488
vt 0.939675 0.704488
vt 0.088425 0.716393
vt 0.365177 0.946021
vt 0.365177 0.716393
vt 0.939674 0.474860
vt 0.088425 0.946021
vn 0.267685 -0.000000 -0.963507
vn 0.267685 -0.000000 -0.963507
vn 0.267685 -0.000000 -0.963507
vn 0.267685 -0.000000 -0.963507
vn 0.000000 -1.000000 -0.000000
vn 0.000000 -1.000000 -0.000000
vn 0.000000 -1.000000 -0.000000
vn 0.267685 0.000000 0.963507
vn 0.267685 0.000000 0.963507
vn 0.267685 0.000000 0.963507
vn 0.267685 0.000000 0.963507
vn 0.000000 1.000000 -0.000000
vn 0.000000 1.000000 -0.000000
vn 0.000000 1.000000 -0.000000
vn -1.000000 0.000000 -0.000000
vn -1.000000 0.000000 -0.000000
vn -1.000000 0.000000 -0.000000
vn -1.000000 0.000000 -0.000000
s 1
g pCube1
usemtl initialShadingGroup
f 1/1/1 6/2/2 2/4/3
f 6/2/2 3/3/4 2/4/3
s off
f 2/5/5 3/6/6 4/7/7
s 3
f 5/11/8 4/7/9 6/2/10
f 4/7/9 3/6/11 6/2/10
s off
f 5/11/12 6/2/13 1/1/14
s 5
f 5/8/15 1/10/16 4/12/17
f 1/10/16 2/9/18 4/12/17
