# This file uses centimeters as units for non-parametric coordinates.

mtllib knife.mtl
g default
v -0.472147 0.131916 0.005967
v -0.472147 -0.131916 0.005967
v 0.944294 -0.000000 0.005967
v -0.314764 0.087944 1.883292
v -0.314765 -0.087944 1.883292
v 0.801624 -0.000000 1.883292
v -0.417866 0.043972 3.760617
v -0.417866 -0.043972 3.760617
v 0.239544 0.000000 3.760617
v -0.773791 0.000000 5.534478
v -0.140893 0.119873 -1.654882
v -0.516115 0.074086 -1.614782
v -0.516115 -0.074086 -1.614782
v -0.140893 -0.119873 -1.654882
v 0.091007 -0.000000 -1.679665
v 0.091620 0.060468 0.171416
v -0.209409 0.037371 0.172030
v -0.209409 -0.037371 0.172030
v 0.091620 -0.060468 0.171416
v 0.277666 0.000000 0.172174
v -0.287372 0.000000 -1.730185
vt 0.004801 0.318683
vt 0.036915 0.279569
vt 0.309881 0.514595
vt 0.288472 0.540670
vt 0.582847 0.749620
vt 0.572143 0.762658
vt 0.840475 0.972052
vt 0.065865 0.230578
vt 0.238273 0.020587
vt 0.499226 0.270245
vt 0.363340 0.435752
vt 0.709129 0.582081
vt 0.629109 0.679544
vt 0.848766 0.948224
vt 0.238400 0.020216
vt 0.065992 0.230207
vt 0.363467 0.435381
vt 0.499353 0.269874
vt 0.629236 0.679173
vt 0.709256 0.581710
vt 0.848893 0.947853
vt 0.953716 0.780476
vt 0.759782 0.588510
vt 0.985830 0.741362
vt 0.869229 0.050303
vt 0.947342 0.050877
vt 0.950272 0.529266
vt 0.872171 0.530796
vt 0.970369 0.051788
vt 0.973287 0.528073
vt 0.694575 0.051373
vt 0.772683 0.050895
vt 0.775625 0.531388
vt 0.697518 0.531866
vt 0.820956 0.050599
vt 0.823898 0.531092
vt 0.896489 0.026947
vt 0.958677 0.022177
vt 0.745138 0.027874
vn -0.996504 0.000000 0.083540
vn -0.996504 0.000000 0.083540
vn -0.996504 0.000000 0.083540
vn -0.996504 0.000000 0.083540
vn 0.086474 -0.996190 0.011328
vn 0.086474 -0.996190 0.011328
vn 0.086474 -0.996190 0.011328
vn 0.086474 -0.996190 0.011328
vn 0.086474 0.996190 0.011328
vn 0.086474 0.996190 0.011328
vn 0.086474 0.996190 0.011328
vn 0.086474 0.996190 0.011328
vn -0.998495 0.000000 -0.054836
vn -0.998495 0.000000 -0.054836
vn 0.074142 -0.996939 0.024811
vn 0.074142 -0.996939 0.024811
vn 0.074142 0.996939 0.024811
vn 0.074142 0.996939 0.024811
vn -0.000000 0.000000 -1.000000
vn -0.000000 0.000000 -1.000000
vn -0.000000 0.000000 -1.000000
vn -0.980458 -0.000000 -0.196729
vn 0.066689 -0.997046 0.038097
vn 0.066689 0.997046 0.038097
vn -0.089907 0.995878 0.011976
vn -0.089907 0.995878 0.011976
vn -0.089907 0.995878 0.011976
vn -0.089907 0.995878 0.011976
vn -0.991244 0.000000 0.132043
vn -0.991244 0.000000 0.132043
vn -0.991244 0.000000 0.132043
vn -0.991244 0.000000 0.132043
vn -0.089907 -0.995878 0.011976
vn -0.089907 -0.995878 0.011976
vn -0.089907 -0.995878 0.011976
vn -0.089907 -0.995878 0.011976
vn 0.356796 -0.932972 -0.047529
vn 0.356796 -0.932972 -0.047529
vn 0.356796 0.932972 -0.047529
vn 0.356796 0.932972 -0.047529
vn -0.149094 0.818674 -0.554566
s 1
g polySurface1
usemtl initialShadingGroup
f 1/1/1 2/2/2 4/4/3
f 2/2/2 5/3/4 4/4/3
s 2
f 2/8/5 3/9/6 5/11/7
f 3/9/6 6/10/8 5/11/7
s 3
f 3/15/9 1/16/10 6/18/11
f 1/16/10 4/17/12 6/18/11
s 1
f 4/4/3 5/3/4 7/6/13
f 5/3/4 8/5/14 7/6/13
s 2
f 6/10/8 9/12/15 5/11/7
f 5/11/7 9/12/15 8/13/16
s 3
f 6/18/11 4/17/12 9/20/17
f 4/17/12 7/19/18 9/20/17
s off
f 1/22/19 3/23/20 2/24/21
s 1
f 7/6/13 8/5/14 10/7/22
s 2
f 8/13/16 9/12/15 10/14/23
s 3
f 9/20/17 7/19/18 10/21/24
s 5
f 16/28/25 11/25/26 17/27/27
f 11/25/26 12/26/28 17/27/27
s 6
f 12/26/29 13/29/30 17/27/31
f 13/29/30 18/30/32 17/27/31
s 5
f 19/33/33 18/34/34 14/32/35
f 13/31/36 14/32/35 18/34/34
f 20/36/37 19/33/33 15/35/38
f 14/32/35 15/35/38 19/33/33
f 20/36/39 15/35/40 16/28/25
f 15/35/40 11/25/26 16/28/25
f 12/26/28 11/25/26 21/37/41
f 13/29/36 12/26/28 21/38/41
f 14/32/35 13/31/36 21/39/41
f 15/35/38 14/32/35 21/39/41
f 11/25/26 15/35/40 21/37/41
