# This file uses centimeters as units for non-parametric coordinates.

mtllib plate.mtl
g default
v 1.875137 0.333723 2.283615
v -0.595937 0.333723 2.847622
v -2.577585 0.333723 1.267311
v -2.577585 0.333723 -1.267311
v -0.595937 0.333723 -2.847622
v 1.875136 0.333723 -2.283616
v 2.974868 0.333723 -0.000000
v 0.054014 0.075707 -0.000000
v 1.873042 0.394081 2.280989
v 0.054014 0.231642 -0.000000
v -0.595189 0.394081 2.844347
v -2.574558 0.394081 1.265854
v -2.574559 0.394081 -1.265854
v -0.595190 0.394081 -2.844347
v 1.873042 0.394081 -2.280989
v 2.971509 0.394081 -0.000000
vt 0.802850 0.995804
vt 0.554069 0.969798
vt 0.705460 0.724502
vt 0.419290 0.759079
vt 0.978294 0.817515
vt 0.500003 0.522323
vt 0.948289 0.569185
vt 0.735430 0.437813
vt 0.544346 0.154697
vt 0.301517 0.310015
vt 0.331486 0.023325
vt 0.574350 0.403027
vt 0.096059 0.107836
vt 0.398906 0.581317
vt 0.015346 0.344592
vt 0.150126 0.555311
vt 0.331486 0.023325
vt 0.544346 0.154697
vt 0.096059 0.107836
vt 0.015346 0.344592
vt 0.150126 0.555311
vt 0.398906 0.581317
vt 0.574350 0.403027
vn 0.054863 -0.996121 0.068796
vn -0.019580 -0.996121 0.085787
vn 0.000000 -1.000000 0.000000
vn -0.079279 -0.996121 0.038179
vn -0.079279 -0.996121 -0.038179
vn -0.019580 -0.996121 -0.085787
vn 0.054863 -0.996121 -0.068796
vn 0.087993 -0.996121 0.000000
vn -0.034661 0.998454 -0.043463
vn 0.000000 1.000000 0.000000
vn 0.012370 0.998454 -0.054197
vn 0.050086 0.998454 -0.024120
vn 0.050086 0.998454 0.024120
vn 0.012370 0.998454 0.054197
vn -0.034661 0.998454 0.043463
vn -0.055591 0.998454 0.000000
vn -0.373666 0.054868 0.925939
vn 0.490951 0.054868 0.869458
vn -0.065088 0.054868 0.996370
vn 0.738412 0.054869 0.672114
vn -0.956906 0.054865 0.285169
vn -0.819575 0.054869 0.570339
vn -0.819575 0.054862 -0.570339
vn -0.956906 0.054862 -0.285169
vn -0.065088 0.054868 -0.996370
vn -0.373667 0.054867 -0.925939
vn 0.738412 0.054869 -0.672114
vn 0.490951 0.054869 -0.869458
vn 0.985872 0.054870 0.158257
vn 0.985872 0.054871 -0.158257
s 1
g pCylinder1
usemtl initialShadingGroup
f 1/1/1 2/2/2 8/3/3
f 2/2/2 3/4/4 8/3/3
f 3/4/4 4/6/5 8/3/3
f 4/6/5 5/8/6 8/3/3
f 5/8/6 6/7/7 8/3/3
f 6/7/7 7/5/8 8/3/3
f 7/5/8 1/1/1 8/3/3
s 2
f 9/18/9 10/10/10 11/17/11
f 11/17/11 10/10/10 12/19/12
f 12/19/12 10/10/10 13/20/13
f 13/20/13 10/10/10 14/21/14
f 14/21/14 10/10/10 15/22/15
f 15/22/15 10/10/10 16/23/16
f 16/23/16 10/10/10 9/18/9
s 3
f 2/11/17 1/9/18 11/17/19
f 1/9/18 9/18/20 11/17/19
f 3/13/21 2/11/17 12/19/22
f 2/11/17 11/17/19 12/19/22
f 4/15/23 3/13/21 13/20/24
f 3/13/21 12/19/22 13/20/24
f 5/16/25 4/15/23 14/21/26
f 4/15/23 13/20/24 14/21/26
f 6/14/27 5/16/25 15/22/28
f 5/16/25 14/21/26 15/22/28
f 7/12/29 6/14/27 16/23/30
f 6/14/27 15/22/28 16/23/30
f 1/9/18 7/12/29 9/18/20
f 7/12/29 16/23/30 9/18/20
